<svg
  xmlns="http://www.w3.org/2000/svg"
  xmlns:xlink="http://www.w3.org/1999/xlink"
  width="1254px" height="497px">
  <path fill-rule="evenodd"  fill="rgb(165, 78, 0)"
        d="M1159.412,338.471 L1104.333,338.471 L1153.580,14.480 L1253.369,0.873 L1159.412,338.471 ZM1149.692,403.917 C1159.624,413.860 1164.596,425.949 1164.596,440.204 C1164.596,454.460 1159.624,466.670 1149.692,476.815 C1139.750,486.970 1127.661,492.043 1113.405,492.043 C1099.150,492.043 1086.939,486.970 1076.794,476.815 C1066.639,466.670 1061.567,454.460 1061.567,440.204 C1061.567,425.949 1066.639,413.860 1076.794,403.917 C1086.939,393.985 1099.150,389.014 1113.405,389.014 C1127.661,389.014 1139.750,393.985 1149.692,403.917 ZM1011.285,428.125 C1011.285,434.383 1012.766,438.838 1015.741,441.491 C1018.708,444.151 1023.633,445.477 1030.514,445.477 C1034.888,445.477 1038.325,444.855 1040.831,443.602 C1033.950,461.115 1027.385,473.382 1021.134,480.417 C1014.876,487.451 1005.812,490.969 993.933,490.969 C981.109,490.969 970.718,487.144 962.746,479.479 C954.773,471.821 949.849,461.115 947.973,447.353 C928.899,476.430 905.603,490.969 878.095,490.969 C860.273,490.969 845.420,484.872 833.541,472.678 C827.569,466.547 823.100,458.674 820.129,449.065 C813.115,459.365 805.393,467.317 796.961,472.913 C778.825,484.953 760.849,490.969 743.028,490.969 C728.021,490.969 715.901,486.279 706.682,476.899 C697.456,467.520 692.847,453.450 692.847,434.691 C692.847,434.067 692.858,433.423 692.874,432.769 C661.996,471.562 625.564,490.969 583.574,490.969 C560.433,490.969 542.458,484.953 529.642,472.913 C523.423,467.079 518.728,459.629 515.527,450.594 C509.419,460.493 502.948,468.094 496.110,473.382 C480.941,485.106 465.230,490.969 448.977,490.969 C429.903,490.969 415.914,485.890 407.003,475.727 C398.092,465.570 393.637,452.981 393.637,437.974 C393.637,431.408 394.414,423.985 395.982,415.697 C397.543,407.417 399.184,399.363 400.906,391.545 C402.621,383.733 403.793,378.728 404.424,376.537 C406.922,365.597 409.267,354.810 411.458,344.178 C413.642,333.552 414.741,324.949 414.741,318.384 C414.741,302.438 409.113,294.466 397.858,294.466 C389.724,294.466 382.535,298.452 376.285,306.425 C370.027,314.397 365.029,324.795 361.277,337.612 L329.387,488.155 L261.853,488.155 L329.856,169.248 L399.265,159.868 L373.940,278.051 C389.570,260.545 407.860,251.788 428.811,251.788 C444.756,251.788 457.419,256.170 466.798,264.920 C476.178,273.676 480.868,286.962 480.868,304.783 C480.868,313.855 479.768,323.938 477.585,335.032 C475.394,346.134 472.265,359.654 468.205,375.599 C465.699,385.294 463.435,394.754 461.405,403.973 C459.368,413.198 458.357,420.468 458.357,425.780 C458.357,432.038 459.763,436.882 462.577,440.319 C465.391,443.763 470.235,445.477 477.116,445.477 C486.495,445.477 493.999,442.121 499.627,435.394 C503.231,431.092 506.834,425.272 510.438,417.955 C510.433,417.434 510.413,416.927 510.413,416.401 C510.413,394.828 514.634,371.071 523.076,345.116 C531.518,319.168 545.272,296.737 564.346,277.817 C583.413,258.904 607.646,249.443 637.038,249.443 C671.428,249.443 688.626,264.451 688.626,294.466 C688.626,311.979 683.621,328.078 673.619,342.771 C663.609,357.470 650.324,369.268 633.755,378.179 C617.180,387.089 599.520,392.175 580.761,393.421 C580.130,402.800 579.823,409.058 579.823,412.180 C579.823,427.502 582.475,437.901 587.795,443.367 C593.108,448.841 601.704,451.574 613.589,451.574 C630.473,451.574 644.930,447.669 656.970,439.850 C669.002,432.038 682.214,420.153 696.599,404.207 L696.599,404.207 L746.780,169.248 L816.189,159.868 L762.256,413.118 C761.003,417.808 760.380,422.813 760.380,428.125 C760.380,434.383 761.861,438.838 764.836,441.491 C767.804,444.151 772.728,445.477 779.609,445.477 C788.673,445.477 797.115,441.652 804.934,433.987 C809.202,429.803 812.813,424.936 815.777,419.397 C815.746,418.100 815.720,416.796 815.720,415.463 C815.720,392.329 820.337,368.022 829.555,342.536 C838.774,317.057 852.535,295.484 870.825,277.817 C889.116,260.157 910.923,251.319 936.248,251.319 C949.065,251.319 958.598,253.510 964.856,257.885 C971.107,262.267 974.236,268.049 974.236,275.237 L974.236,278.520 L979.395,253.664 L1046.928,253.664 L1013.161,413.118 C1011.908,417.808 1011.285,422.813 1011.285,428.125 ZM617.576,358.716 C628.047,351.212 636.489,341.679 642.901,330.108 C649.305,318.545 652.515,306.351 652.515,293.528 C652.515,280.711 648.602,274.299 640.790,274.299 C629.535,274.299 618.514,284.148 607.727,303.845 C596.940,323.542 589.202,345.900 584.512,370.909 C596.076,370.287 607.097,366.220 617.576,358.716 ZM965.325,286.258 C962.196,282.353 957.353,280.396 950.787,280.396 C938.278,280.396 927.023,287.665 917.020,302.204 C907.010,316.742 899.199,334.256 893.571,354.730 C887.943,375.211 885.129,393.267 885.129,408.897 C885.129,424.535 887.394,434.537 891.930,438.912 C896.458,443.294 902.013,445.477 908.578,445.477 C916.390,445.477 924.128,441.806 931.793,434.456 C939.451,427.114 944.690,417.031 947.504,404.207 L970.015,298.217 C970.015,294.158 968.447,290.171 965.325,286.258 ZM195.258,288.369 C216.516,288.369 231.523,292.824 240.280,301.735 C249.030,310.645 253.412,322.920 253.412,338.550 C253.412,347.622 252.313,357.236 250.129,367.392 C247.938,377.556 244.809,390.138 240.749,405.145 C238.243,414.840 235.898,424.373 233.714,433.753 C231.523,443.133 230.432,450.951 230.432,457.202 C230.432,464.398 232.073,470.802 235.356,476.430 C238.639,482.058 243.094,485.971 248.722,488.155 C229.648,493.467 214.171,496.127 202.293,496.127 C177.906,496.127 165.712,485.656 165.712,464.706 C165.712,457.832 166.723,449.933 168.761,441.022 C170.790,432.112 173.685,420.621 177.437,406.552 C181.811,391.860 185.094,379.351 187.285,369.034 C189.469,358.716 190.568,349.498 190.568,341.364 C190.568,320.106 181.189,309.473 162.429,309.473 C157.109,309.473 151.951,310.103 146.953,311.349 L109.434,488.155 L41.901,488.155 L109.903,169.248 C88.953,178.004 72.773,191.136 61.364,208.642 C49.947,226.155 44.246,247.260 44.246,271.954 C44.246,283.525 45.338,291.578 47.529,296.107 C49.713,300.643 50.812,303.222 50.812,303.845 C33.929,303.845 21.339,300.328 13.059,293.293 C4.771,286.258 0.631,274.614 0.631,258.354 C0.631,238.349 8.838,218.886 25.252,199.966 C41.667,181.053 62.690,165.730 88.330,154.006 C113.963,142.281 139.603,136.419 165.243,136.419 C169.618,136.419 175.869,136.734 184.002,137.357 L153.519,280.865 L201.824,216.146 C240.280,164.250 259.662,138.456 259.977,138.764 L309.220,138.764 L178.844,288.838 L195.258,288.369 Z"/>
</svg>
