<?xml version="1.0" encoding="utf-8"?>
<svg xmlns="http://www.w3.org/2000/svg" viewBox="0 50.427 1440 66.948" xmlns:bx="https://boxy-svg.com" width="1440px" height="66.948px"><defs><bx:export><bx:file format="svg"/></bx:export></defs><path fill="#FFA725" fill-opacity="1" d="M 0 96 L 48 96 C 96 96 192 96 288 90.7 C 384 85 480 75 576 80 C 672 85 768 107 864 112 C 960 117 1056 107 1152 101.3 C 1248 96 1344 96 1392 96 L 1440 96 L 1440 50 L 1392 50 C 1344 50 1248 50 1152 50 C 1056 50 960 50 864 50 C 768 50 672 50 576 50 C 480 50 384 50 288 50 C 192 50 96 50 48 50 L 0 50 L 0 96 Z"/></svg>